<svg width="85" height="56" viewBox="0 0 85 56" fill="none" xmlns="http://www.w3.org/2000/svg">
<rect width="85" height="56" rx="8" fill="#444444"/>
<path d="M17.2784 33.5V21.8636H24.4943V23.375H19.0341V26.9205H23.9773V28.4261H19.0341V33.5H17.2784ZM29.6378 33.6761C28.7779 33.6761 28.0374 33.4924 27.4162 33.125C26.7988 32.7538 26.3215 32.233 25.9844 31.5625C25.651 30.8883 25.4844 30.0985 25.4844 29.1932C25.4844 28.2992 25.651 27.5114 25.9844 26.8295C26.3215 26.1477 26.7912 25.6155 27.3935 25.233C27.9995 24.8504 28.7079 24.6591 29.5185 24.6591C30.0109 24.6591 30.4882 24.7405 30.9503 24.9034C31.4124 25.0663 31.8272 25.322 32.1946 25.6705C32.562 26.0189 32.8518 26.4716 33.0639 27.0284C33.276 27.5814 33.3821 28.2538 33.3821 29.0455V29.6477H26.4446V28.375H31.7173C31.7173 27.928 31.6264 27.5322 31.4446 27.1875C31.2628 26.839 31.0071 26.5644 30.6776 26.3636C30.3518 26.1629 29.9692 26.0625 29.5298 26.0625C29.0526 26.0625 28.6359 26.1799 28.2798 26.4148C27.9276 26.6458 27.6548 26.9489 27.4616 27.3239C27.2723 27.6951 27.1776 28.0985 27.1776 28.5341V29.5284C27.1776 30.1117 27.2798 30.608 27.4844 31.017C27.6927 31.4261 27.9825 31.7386 28.3537 31.9545C28.7249 32.1667 29.1586 32.2727 29.6548 32.2727C29.9768 32.2727 30.2704 32.2273 30.5355 32.1364C30.8007 32.0417 31.0298 31.9015 31.223 31.7159C31.4162 31.5303 31.5639 31.3011 31.6662 31.0284L33.2741 31.3182C33.1454 31.7917 32.9143 32.2064 32.581 32.5625C32.2514 32.9148 31.8366 33.1894 31.3366 33.3864C30.8404 33.5795 30.2741 33.6761 29.6378 33.6761ZM38.9432 33.6761C38.0985 33.6761 37.3712 33.4848 36.7614 33.1023C36.1553 32.7159 35.6894 32.1837 35.3636 31.5057C35.0379 30.8277 34.875 30.0511 34.875 29.1761C34.875 28.2898 35.0417 27.5076 35.375 26.8295C35.7083 26.1477 36.178 25.6155 36.7841 25.233C37.3902 24.8504 38.1042 24.6591 38.9261 24.6591C39.589 24.6591 40.1799 24.7822 40.6989 25.0284C41.2178 25.2708 41.6364 25.6117 41.9545 26.0511C42.2765 26.4905 42.4678 27.0038 42.5284 27.5909H40.875C40.7841 27.1818 40.5758 26.8295 40.25 26.5341C39.928 26.2386 39.4962 26.0909 38.9545 26.0909C38.4811 26.0909 38.0663 26.2159 37.7102 26.4659C37.358 26.7121 37.0833 27.0644 36.8864 27.5227C36.6894 27.9773 36.5909 28.5152 36.5909 29.1364C36.5909 29.7727 36.6875 30.322 36.8807 30.7841C37.0739 31.2462 37.3466 31.6042 37.6989 31.858C38.0549 32.1117 38.4735 32.2386 38.9545 32.2386C39.2765 32.2386 39.5682 32.1799 39.8295 32.0625C40.0947 31.9413 40.3163 31.7689 40.4943 31.5455C40.6761 31.322 40.803 31.053 40.875 30.7386H42.5284C42.4678 31.303 42.2841 31.8068 41.9773 32.25C41.6705 32.6932 41.2595 33.0417 40.7443 33.2955C40.233 33.5492 39.6326 33.6761 38.9432 33.6761ZM46.044 28.3182V33.5H44.3452V21.8636H46.0213V26.1932H46.1293C46.3338 25.7235 46.6463 25.3504 47.0668 25.0739C47.4872 24.7973 48.0365 24.6591 48.7145 24.6591C49.313 24.6591 49.8357 24.7822 50.2827 25.0284C50.7334 25.2746 51.0819 25.642 51.3281 26.1307C51.5781 26.6155 51.7031 27.2216 51.7031 27.9489V33.5H50.0043V28.1534C50.0043 27.5133 49.8395 27.017 49.5099 26.6648C49.1804 26.3087 48.7221 26.1307 48.1349 26.1307C47.7334 26.1307 47.3736 26.2159 47.0554 26.3864C46.741 26.5568 46.4929 26.8068 46.3111 27.1364C46.133 27.4621 46.044 27.8561 46.044 28.3182ZM56.5099 33.6932C55.9569 33.6932 55.4569 33.5909 55.0099 33.3864C54.563 33.178 54.2088 32.8769 53.9474 32.483C53.6899 32.089 53.5611 31.6061 53.5611 31.0341C53.5611 30.5417 53.6558 30.1364 53.8452 29.8182C54.0346 29.5 54.2902 29.2481 54.6122 29.0625C54.9342 28.8769 55.294 28.7367 55.6918 28.642C56.0895 28.5473 56.4948 28.4754 56.9077 28.4261C57.4304 28.3655 57.8546 28.3163 58.1804 28.2784C58.5062 28.2367 58.7429 28.1705 58.8906 28.0795C59.0384 27.9886 59.1122 27.8409 59.1122 27.6364V27.5966C59.1122 27.1004 58.9721 26.7159 58.6918 26.4432C58.4152 26.1705 58.0024 26.0341 57.4531 26.0341C56.8812 26.0341 56.4304 26.161 56.1009 26.4148C55.7751 26.6648 55.5497 26.9432 55.4247 27.25L53.8281 26.8864C54.0175 26.3561 54.294 25.928 54.6577 25.6023C55.0251 25.2727 55.4474 25.0341 55.9247 24.8864C56.402 24.7348 56.9039 24.6591 57.4304 24.6591C57.7789 24.6591 58.1482 24.7008 58.5384 24.7841C58.9323 24.8636 59.2997 25.0114 59.6406 25.2273C59.9853 25.4432 60.2675 25.7519 60.4872 26.1534C60.7069 26.5511 60.8168 27.0682 60.8168 27.7045V33.5H59.1577V32.3068H59.0895C58.9796 32.5265 58.8149 32.7424 58.5952 32.9545C58.3755 33.1667 58.0933 33.3428 57.7486 33.483C57.4039 33.6231 56.991 33.6932 56.5099 33.6932ZM56.8793 32.3295C57.349 32.3295 57.7505 32.2367 58.0838 32.0511C58.4209 31.8655 58.6766 31.6231 58.8509 31.3239C59.0289 31.0208 59.1179 30.697 59.1179 30.3523V29.2273C59.0573 29.2879 58.9399 29.3447 58.7656 29.3977C58.5952 29.447 58.4001 29.4905 58.1804 29.5284C57.9607 29.5625 57.7467 29.5947 57.5384 29.625C57.33 29.6515 57.1558 29.6742 57.0156 29.6932C56.6861 29.7348 56.3849 29.8049 56.1122 29.9034C55.8433 30.0019 55.6274 30.1439 55.4645 30.3295C55.3054 30.5114 55.2259 30.7538 55.2259 31.0568C55.2259 31.4773 55.3812 31.7955 55.6918 32.0114C56.0024 32.2235 56.3982 32.3295 56.8793 32.3295ZM63.0795 33.5V24.7727H64.7216V26.1591H64.8125C64.9716 25.6894 65.2519 25.3201 65.6534 25.0511C66.0587 24.7784 66.517 24.642 67.0284 24.642C67.1345 24.642 67.2595 24.6458 67.4034 24.6534C67.5511 24.661 67.6667 24.6705 67.75 24.6818V26.3068C67.6818 26.2879 67.5606 26.267 67.3864 26.2443C67.2121 26.2178 67.0379 26.2045 66.8636 26.2045C66.4621 26.2045 66.1042 26.2898 65.7898 26.4602C65.4792 26.6269 65.233 26.8598 65.0511 27.1591C64.8693 27.4545 64.7784 27.7917 64.7784 28.1705V33.5H63.0795Z" fill="white"/>
</svg>
