<svg width="622" height="79" viewBox="0 0 622 79" fill="none" xmlns="http://www.w3.org/2000/svg">
<rect x="1" y="1" width="620" height="77" rx="7" stroke="white" stroke-width="2" stroke-dasharray="6 6"/>
<path d="M241.5 39.5H253.5" stroke="white" stroke-width="1.5" stroke-linecap="round" stroke-linejoin="round"/>
<path d="M247.5 45.5V33.5" stroke="white" stroke-width="1.5" stroke-linecap="round" stroke-linejoin="round"/>
<path d="M266.261 45H264.398L268.585 33.3636H270.614L274.801 45H272.938L269.648 35.4773H269.557L266.261 45ZM266.574 40.4432H272.619V41.9205H266.574V40.4432ZM279.472 45.1705C278.767 45.1705 278.138 44.9905 277.585 44.6307C277.036 44.267 276.604 43.75 276.29 43.0795C275.979 42.4053 275.824 41.5966 275.824 40.6534C275.824 39.7102 275.981 38.9034 276.295 38.233C276.614 37.5625 277.049 37.0492 277.602 36.6932C278.155 36.3371 278.782 36.1591 279.483 36.1591C280.025 36.1591 280.46 36.25 280.79 36.4318C281.123 36.6098 281.381 36.8182 281.562 37.0568C281.748 37.2955 281.892 37.5057 281.994 37.6875H282.097V33.3636H283.795V45H282.136V43.642H281.994C281.892 43.8277 281.744 44.0398 281.551 44.2784C281.362 44.517 281.1 44.7254 280.767 44.9034C280.434 45.0814 280.002 45.1705 279.472 45.1705ZM279.847 43.7216C280.335 43.7216 280.748 43.5928 281.085 43.3352C281.426 43.0739 281.684 42.7121 281.858 42.25C282.036 41.7879 282.125 41.25 282.125 40.6364C282.125 40.0303 282.038 39.5 281.864 39.0455C281.689 38.5909 281.434 38.2367 281.097 37.983C280.759 37.7292 280.343 37.6023 279.847 37.6023C279.335 37.6023 278.909 37.7348 278.568 38C278.227 38.2652 277.97 38.6269 277.795 39.0852C277.625 39.5436 277.54 40.0606 277.54 40.6364C277.54 41.2197 277.627 41.7443 277.801 42.2102C277.975 42.6761 278.233 43.0455 278.574 43.3182C278.919 43.5871 279.343 43.7216 279.847 43.7216ZM286.22 45V36.2727H287.919V45H286.22ZM287.078 34.9261C286.783 34.9261 286.529 34.8277 286.317 34.6307C286.108 34.4299 286.004 34.1913 286.004 33.9148C286.004 33.6345 286.108 33.3958 286.317 33.1989C286.529 32.9981 286.783 32.8977 287.078 32.8977C287.374 32.8977 287.625 32.9981 287.834 33.1989C288.046 33.3958 288.152 33.6345 288.152 33.9148C288.152 34.1913 288.046 34.4299 287.834 34.6307C287.625 34.8277 287.374 34.9261 287.078 34.9261ZM293.881 45.1761C293.036 45.1761 292.309 44.9848 291.699 44.6023C291.093 44.2159 290.627 43.6837 290.301 43.0057C289.975 42.3277 289.812 41.5511 289.812 40.6761C289.812 39.7898 289.979 39.0076 290.312 38.3295C290.646 37.6477 291.116 37.1155 291.722 36.733C292.328 36.3504 293.042 36.1591 293.864 36.1591C294.527 36.1591 295.117 36.2822 295.636 36.5284C296.155 36.7708 296.574 37.1117 296.892 37.5511C297.214 37.9905 297.405 38.5038 297.466 39.0909H295.812C295.722 38.6818 295.513 38.3295 295.188 38.0341C294.866 37.7386 294.434 37.5909 293.892 37.5909C293.419 37.5909 293.004 37.7159 292.648 37.9659C292.295 38.2121 292.021 38.5644 291.824 39.0227C291.627 39.4773 291.528 40.0152 291.528 40.6364C291.528 41.2727 291.625 41.822 291.818 42.2841C292.011 42.7462 292.284 43.1042 292.636 43.358C292.992 43.6117 293.411 43.7386 293.892 43.7386C294.214 43.7386 294.506 43.6799 294.767 43.5625C295.032 43.4413 295.254 43.2689 295.432 43.0455C295.614 42.822 295.741 42.553 295.812 42.2386H297.466C297.405 42.803 297.222 43.3068 296.915 43.75C296.608 44.1932 296.197 44.5417 295.682 44.7955C295.17 45.0492 294.57 45.1761 293.881 45.1761ZM299.283 45V36.2727H300.982V45H299.283ZM300.141 34.9261C299.845 34.9261 299.591 34.8277 299.379 34.6307C299.171 34.4299 299.067 34.1913 299.067 33.9148C299.067 33.6345 299.171 33.3958 299.379 33.1989C299.591 32.9981 299.845 32.8977 300.141 32.8977C300.436 32.8977 300.688 32.9981 300.896 33.1989C301.108 33.3958 301.214 33.6345 301.214 33.9148C301.214 34.1913 301.108 34.4299 300.896 34.6307C300.688 34.8277 300.436 34.9261 300.141 34.9261ZM306.943 45.1761C306.125 45.1761 305.411 44.9886 304.801 44.6136C304.191 44.2386 303.718 43.714 303.381 43.0398C303.044 42.3655 302.875 41.5777 302.875 40.6761C302.875 39.7708 303.044 38.9792 303.381 38.3011C303.718 37.6231 304.191 37.0966 304.801 36.7216C305.411 36.3466 306.125 36.1591 306.943 36.1591C307.761 36.1591 308.475 36.3466 309.085 36.7216C309.695 37.0966 310.169 37.6231 310.506 38.3011C310.843 38.9792 311.011 39.7708 311.011 40.6761C311.011 41.5777 310.843 42.3655 310.506 43.0398C310.169 43.714 309.695 44.2386 309.085 44.6136C308.475 44.9886 307.761 45.1761 306.943 45.1761ZM306.949 43.75C307.479 43.75 307.919 43.6098 308.267 43.3295C308.616 43.0492 308.873 42.6761 309.04 42.2102C309.21 41.7443 309.295 41.2311 309.295 40.6705C309.295 40.1136 309.21 39.6023 309.04 39.1364C308.873 38.6667 308.616 38.2898 308.267 38.0057C307.919 37.7216 307.479 37.5795 306.949 37.5795C306.415 37.5795 305.972 37.7216 305.619 38.0057C305.271 38.2898 305.011 38.6667 304.841 39.1364C304.674 39.6023 304.591 40.1136 304.591 40.6705C304.591 41.2311 304.674 41.7443 304.841 42.2102C305.011 42.6761 305.271 43.0492 305.619 43.3295C305.972 43.6098 306.415 43.75 306.949 43.75ZM314.607 39.8182V45H312.908V36.2727H314.538V37.6932H314.646C314.847 37.2311 315.161 36.8598 315.589 36.5795C316.021 36.2992 316.565 36.1591 317.22 36.1591C317.815 36.1591 318.336 36.2841 318.783 36.5341C319.23 36.7803 319.576 37.1477 319.822 37.6364C320.069 38.125 320.192 38.7292 320.192 39.4489V45H318.493V39.6534C318.493 39.0208 318.328 38.5265 317.999 38.1705C317.669 37.8106 317.216 37.6307 316.641 37.6307C316.247 37.6307 315.896 37.7159 315.589 37.8864C315.286 38.0568 315.046 38.3068 314.868 38.6364C314.694 38.9621 314.607 39.3561 314.607 39.8182ZM325.01 45.1932C324.457 45.1932 323.957 45.0909 323.51 44.8864C323.063 44.678 322.709 44.3769 322.447 43.983C322.19 43.589 322.061 43.1061 322.061 42.5341C322.061 42.0417 322.156 41.6364 322.345 41.3182C322.535 41 322.79 40.7481 323.112 40.5625C323.434 40.3769 323.794 40.2367 324.192 40.142C324.589 40.0473 324.995 39.9754 325.408 39.9261C325.93 39.8655 326.355 39.8163 326.68 39.7784C327.006 39.7367 327.243 39.6705 327.391 39.5795C327.538 39.4886 327.612 39.3409 327.612 39.1364V39.0966C327.612 38.6004 327.472 38.2159 327.192 37.9432C326.915 37.6705 326.502 37.5341 325.953 37.5341C325.381 37.5341 324.93 37.661 324.601 37.9148C324.275 38.1648 324.05 38.4432 323.925 38.75L322.328 38.3864C322.518 37.8561 322.794 37.428 323.158 37.1023C323.525 36.7727 323.947 36.5341 324.425 36.3864C324.902 36.2348 325.404 36.1591 325.93 36.1591C326.279 36.1591 326.648 36.2008 327.038 36.2841C327.432 36.3636 327.8 36.5114 328.141 36.7273C328.485 36.9432 328.768 37.2519 328.987 37.6534C329.207 38.0511 329.317 38.5682 329.317 39.2045V45H327.658V43.8068H327.589C327.48 44.0265 327.315 44.2424 327.095 44.4545C326.875 44.6667 326.593 44.8428 326.249 44.983C325.904 45.1231 325.491 45.1932 325.01 45.1932ZM325.379 43.8295C325.849 43.8295 326.25 43.7367 326.584 43.5511C326.921 43.3655 327.177 43.1231 327.351 42.8239C327.529 42.5208 327.618 42.197 327.618 41.8523V40.7273C327.557 40.7879 327.44 40.8447 327.266 40.8977C327.095 40.947 326.9 40.9905 326.68 41.0284C326.461 41.0625 326.247 41.0947 326.038 41.125C325.83 41.1515 325.656 41.1742 325.516 41.1932C325.186 41.2348 324.885 41.3049 324.612 41.4034C324.343 41.5019 324.127 41.6439 323.964 41.8295C323.805 42.0114 323.726 42.2538 323.726 42.5568C323.726 42.9773 323.881 43.2955 324.192 43.5114C324.502 43.7235 324.898 43.8295 325.379 43.8295ZM331.58 45V36.2727H333.222V37.6591H333.312C333.472 37.1894 333.752 36.8201 334.153 36.5511C334.559 36.2784 335.017 36.142 335.528 36.142C335.634 36.142 335.759 36.1458 335.903 36.1534C336.051 36.161 336.167 36.1705 336.25 36.1818V37.8068C336.182 37.7879 336.061 37.767 335.886 37.7443C335.712 37.7178 335.538 37.7045 335.364 37.7045C334.962 37.7045 334.604 37.7898 334.29 37.9602C333.979 38.1269 333.733 38.3598 333.551 38.6591C333.369 38.9545 333.278 39.2917 333.278 39.6705V45H331.58ZM346.028 36.2727V37.6364H341.261V36.2727H346.028ZM342.54 34.1818H344.239V42.4375C344.239 42.767 344.288 43.0152 344.386 43.1818C344.485 43.3447 344.612 43.4564 344.767 43.517C344.926 43.5739 345.098 43.6023 345.284 43.6023C345.42 43.6023 345.54 43.5928 345.642 43.5739C345.744 43.5549 345.824 43.5398 345.881 43.5284L346.188 44.9318C346.089 44.9697 345.949 45.0076 345.767 45.0455C345.585 45.0871 345.358 45.1098 345.085 45.1136C344.638 45.1212 344.222 45.0417 343.835 44.875C343.449 44.7083 343.136 44.4508 342.898 44.1023C342.659 43.7538 342.54 43.3163 342.54 42.7898V34.1818ZM350.447 45.1932C349.894 45.1932 349.394 45.0909 348.947 44.8864C348.5 44.678 348.146 44.3769 347.885 43.983C347.627 43.589 347.499 43.1061 347.499 42.5341C347.499 42.0417 347.593 41.6364 347.783 41.3182C347.972 41 348.228 40.7481 348.55 40.5625C348.872 40.3769 349.232 40.2367 349.629 40.142C350.027 40.0473 350.432 39.9754 350.845 39.9261C351.368 39.8655 351.792 39.8163 352.118 39.7784C352.444 39.7367 352.68 39.6705 352.828 39.5795C352.976 39.4886 353.05 39.3409 353.05 39.1364V39.0966C353.05 38.6004 352.91 38.2159 352.629 37.9432C352.353 37.6705 351.94 37.5341 351.391 37.5341C350.819 37.5341 350.368 37.661 350.038 37.9148C349.713 38.1648 349.487 38.4432 349.362 38.75L347.766 38.3864C347.955 37.8561 348.232 37.428 348.595 37.1023C348.963 36.7727 349.385 36.5341 349.862 36.3864C350.339 36.2348 350.841 36.1591 351.368 36.1591C351.716 36.1591 352.086 36.2008 352.476 36.2841C352.87 36.3636 353.237 36.5114 353.578 36.7273C353.923 36.9432 354.205 37.2519 354.425 37.6534C354.644 38.0511 354.754 38.5682 354.754 39.2045V45H353.095V43.8068H353.027C352.917 44.0265 352.752 44.2424 352.533 44.4545C352.313 44.6667 352.031 44.8428 351.686 44.983C351.341 45.1231 350.929 45.1932 350.447 45.1932ZM350.817 43.8295C351.286 43.8295 351.688 43.7367 352.021 43.5511C352.358 43.3655 352.614 43.1231 352.788 42.8239C352.966 42.5208 353.055 42.197 353.055 41.8523V40.7273C352.995 40.7879 352.877 40.8447 352.703 40.8977C352.533 40.947 352.338 40.9905 352.118 41.0284C351.898 41.0625 351.684 41.0947 351.476 41.125C351.268 41.1515 351.093 41.1742 350.953 41.1932C350.624 41.2348 350.322 41.3049 350.05 41.4034C349.781 41.5019 349.565 41.6439 349.402 41.8295C349.243 42.0114 349.163 42.2538 349.163 42.5568C349.163 42.9773 349.319 43.2955 349.629 43.5114C349.94 43.7235 350.336 43.8295 350.817 43.8295ZM357.017 45V36.2727H358.659V37.6591H358.75C358.909 37.1894 359.189 36.8201 359.591 36.5511C359.996 36.2784 360.455 36.142 360.966 36.142C361.072 36.142 361.197 36.1458 361.341 36.1534C361.489 36.161 361.604 36.1705 361.688 36.1818V37.8068C361.619 37.7879 361.498 37.767 361.324 37.7443C361.15 37.7178 360.975 37.7045 360.801 37.7045C360.4 37.7045 360.042 37.7898 359.727 37.9602C359.417 38.1269 359.17 38.3598 358.989 38.6591C358.807 38.9545 358.716 39.2917 358.716 39.6705V45H357.017ZM366.607 45.1761C365.747 45.1761 365.006 44.9924 364.385 44.625C363.768 44.2538 363.29 43.733 362.953 43.0625C362.62 42.3883 362.453 41.5985 362.453 40.6932C362.453 39.7992 362.62 39.0114 362.953 38.3295C363.29 37.6477 363.76 37.1155 364.362 36.733C364.968 36.3504 365.677 36.1591 366.487 36.1591C366.98 36.1591 367.457 36.2405 367.919 36.4034C368.381 36.5663 368.796 36.822 369.163 37.1705C369.531 37.5189 369.821 37.9716 370.033 38.5284C370.245 39.0814 370.351 39.7538 370.351 40.5455V41.1477H363.413V39.875H368.686C368.686 39.428 368.595 39.0322 368.413 38.6875C368.232 38.339 367.976 38.0644 367.646 37.8636C367.321 37.6629 366.938 37.5625 366.499 37.5625C366.021 37.5625 365.605 37.6799 365.249 37.9148C364.896 38.1458 364.624 38.4489 364.43 38.8239C364.241 39.1951 364.146 39.5985 364.146 40.0341V41.0284C364.146 41.6117 364.249 42.108 364.453 42.517C364.661 42.9261 364.951 43.2386 365.322 43.4545C365.694 43.6667 366.127 43.7727 366.624 43.7727C366.946 43.7727 367.239 43.7273 367.504 43.6364C367.769 43.5417 367.999 43.4015 368.192 43.2159C368.385 43.0303 368.533 42.8011 368.635 42.5284L370.243 42.8182C370.114 43.2917 369.883 43.7064 369.55 44.0625C369.22 44.4148 368.805 44.6894 368.305 44.8864C367.809 45.0795 367.243 45.1761 366.607 45.1761ZM376.389 36.2727V37.6364H371.457V36.2727H376.389ZM372.81 45V35.2614C372.81 34.7159 372.929 34.2633 373.168 33.9034C373.406 33.5398 373.723 33.2689 374.116 33.0909C374.51 32.9091 374.938 32.8182 375.401 32.8182C375.741 32.8182 376.033 32.8466 376.276 32.9034C376.518 32.9564 376.698 33.0057 376.815 33.0511L376.418 34.4261C376.338 34.4034 376.236 34.3769 376.111 34.3466C375.986 34.3125 375.834 34.2955 375.656 34.2955C375.243 34.2955 374.948 34.3977 374.77 34.6023C374.596 34.8068 374.509 35.1023 374.509 35.4886V45H372.81ZM380.416 45.1932C379.863 45.1932 379.363 45.0909 378.916 44.8864C378.469 44.678 378.115 44.3769 377.854 43.983C377.596 43.589 377.467 43.1061 377.467 42.5341C377.467 42.0417 377.562 41.6364 377.751 41.3182C377.941 41 378.196 40.7481 378.518 40.5625C378.84 40.3769 379.2 40.2367 379.598 40.142C379.996 40.0473 380.401 39.9754 380.814 39.9261C381.337 39.8655 381.761 39.8163 382.087 39.7784C382.412 39.7367 382.649 39.6705 382.797 39.5795C382.945 39.4886 383.018 39.3409 383.018 39.1364V39.0966C383.018 38.6004 382.878 38.2159 382.598 37.9432C382.321 37.6705 381.909 37.5341 381.359 37.5341C380.787 37.5341 380.337 37.661 380.007 37.9148C379.681 38.1648 379.456 38.4432 379.331 38.75L377.734 38.3864C377.924 37.8561 378.2 37.428 378.564 37.1023C378.931 36.7727 379.354 36.5341 379.831 36.3864C380.308 36.2348 380.81 36.1591 381.337 36.1591C381.685 36.1591 382.054 36.2008 382.445 36.2841C382.839 36.3636 383.206 36.5114 383.547 36.7273C383.892 36.9432 384.174 37.2519 384.393 37.6534C384.613 38.0511 384.723 38.5682 384.723 39.2045V45H383.064V43.8068H382.996C382.886 44.0265 382.721 44.2424 382.501 44.4545C382.282 44.6667 382 44.8428 381.655 44.983C381.31 45.1231 380.897 45.1932 380.416 45.1932ZM380.786 43.8295C381.255 43.8295 381.657 43.7367 381.99 43.5511C382.327 43.3655 382.583 43.1231 382.757 42.8239C382.935 42.5208 383.024 42.197 383.024 41.8523V40.7273C382.964 40.7879 382.846 40.8447 382.672 40.8977C382.501 40.947 382.306 40.9905 382.087 41.0284C381.867 41.0625 381.653 41.0947 381.445 41.125C381.236 41.1515 381.062 41.1742 380.922 41.1932C380.592 41.2348 380.291 41.3049 380.018 41.4034C379.75 41.5019 379.534 41.6439 379.371 41.8295C379.212 42.0114 379.132 42.2538 379.132 42.5568C379.132 42.9773 379.287 43.2955 379.598 43.5114C379.909 43.7235 380.304 43.8295 380.786 43.8295Z" fill="white"/>
</svg>
