<svg width="164" height="56" viewBox="0 0 164 56" fill="none" xmlns="http://www.w3.org/2000/svg">
<rect width="164" height="56" rx="8" fill="#1D46CA"/>
<path d="M41.125 24.9205C41.0644 24.3826 40.8144 23.9659 40.375 23.6705C39.9356 23.3712 39.3826 23.2216 38.7159 23.2216C38.2386 23.2216 37.8258 23.2973 37.4773 23.4489C37.1288 23.5966 36.858 23.8011 36.6648 24.0625C36.4754 24.3201 36.3807 24.6136 36.3807 24.9432C36.3807 25.2197 36.4451 25.4583 36.5739 25.6591C36.7064 25.8598 36.8788 26.0284 37.0909 26.1648C37.3068 26.2973 37.5379 26.4091 37.7841 26.5C38.0303 26.5871 38.267 26.6591 38.4943 26.7159L39.6307 27.0114C40.0019 27.1023 40.3826 27.2254 40.7727 27.3807C41.1629 27.536 41.5246 27.7405 41.858 27.9943C42.1913 28.2481 42.4602 28.5625 42.6648 28.9375C42.8731 29.3125 42.9773 29.7614 42.9773 30.2841C42.9773 30.9432 42.8068 31.5284 42.4659 32.0398C42.1288 32.5511 41.6383 32.9545 40.9943 33.25C40.3542 33.5455 39.5795 33.6932 38.6705 33.6932C37.7992 33.6932 37.0455 33.5549 36.4091 33.2784C35.7727 33.0019 35.2746 32.6098 34.9148 32.1023C34.5549 31.5909 34.3561 30.9848 34.3182 30.2841H36.0795C36.1136 30.7045 36.25 31.0549 36.4886 31.3352C36.7311 31.6117 37.0398 31.8182 37.4148 31.9545C37.7936 32.0871 38.2083 32.1534 38.6591 32.1534C39.1553 32.1534 39.5966 32.0758 39.983 31.9205C40.3731 31.7614 40.6799 31.5417 40.9034 31.2614C41.1269 30.9773 41.2386 30.6458 41.2386 30.267C41.2386 29.9223 41.1402 29.6402 40.9432 29.4205C40.75 29.2008 40.4867 29.0189 40.1534 28.875C39.8239 28.7311 39.4508 28.6042 39.0341 28.4943L37.6591 28.1193C36.7273 27.8655 35.9886 27.4924 35.4432 27C34.9015 26.5076 34.6307 25.8561 34.6307 25.0455C34.6307 24.375 34.8125 23.7898 35.1761 23.2898C35.5398 22.7898 36.0322 22.4015 36.6534 22.125C37.2746 21.8447 37.9754 21.7045 38.7557 21.7045C39.5436 21.7045 40.2386 21.8428 40.8409 22.1193C41.447 22.3958 41.9242 22.7765 42.2727 23.2614C42.6212 23.7424 42.803 24.2955 42.8182 24.9205H41.125ZM47.4787 33.6932C46.9257 33.6932 46.4257 33.5909 45.9787 33.3864C45.5317 33.178 45.1776 32.8769 44.9162 32.483C44.6586 32.089 44.5298 31.6061 44.5298 31.0341C44.5298 30.5417 44.6245 30.1364 44.8139 29.8182C45.0033 29.5 45.259 29.2481 45.581 29.0625C45.9029 28.8769 46.2628 28.7367 46.6605 28.642C47.0582 28.5473 47.4635 28.4754 47.8764 28.4261C48.3991 28.3655 48.8234 28.3163 49.1491 28.2784C49.4749 28.2367 49.7116 28.1705 49.8594 28.0795C50.0071 27.9886 50.081 27.8409 50.081 27.6364V27.5966C50.081 27.1004 49.9408 26.7159 49.6605 26.4432C49.384 26.1705 48.9711 26.0341 48.4219 26.0341C47.8499 26.0341 47.3991 26.161 47.0696 26.4148C46.7438 26.6648 46.5185 26.9432 46.3935 27.25L44.7969 26.8864C44.9863 26.3561 45.2628 25.928 45.6264 25.6023C45.9938 25.2727 46.4162 25.0341 46.8935 24.8864C47.3707 24.7348 47.8726 24.6591 48.3991 24.6591C48.7476 24.6591 49.117 24.7008 49.5071 24.7841C49.901 24.8636 50.2685 25.0114 50.6094 25.2273C50.9541 25.4432 51.2363 25.7519 51.456 26.1534C51.6757 26.5511 51.7855 27.0682 51.7855 27.7045V33.5H50.1264V32.3068H50.0582C49.9484 32.5265 49.7836 32.7424 49.5639 32.9545C49.3442 33.1667 49.062 33.3428 48.7173 33.483C48.3726 33.6231 47.9598 33.6932 47.4787 33.6932ZM47.848 32.3295C48.3177 32.3295 48.7192 32.2367 49.0526 32.0511C49.3897 31.8655 49.6454 31.6231 49.8196 31.3239C49.9976 31.0208 50.0866 30.697 50.0866 30.3523V29.2273C50.026 29.2879 49.9086 29.3447 49.7344 29.3977C49.5639 29.447 49.3688 29.4905 49.1491 29.5284C48.9295 29.5625 48.7154 29.5947 48.5071 29.625C48.2988 29.6515 48.1245 29.6742 47.9844 29.6932C47.6548 29.7348 47.3537 29.8049 47.081 29.9034C46.812 30.0019 46.5961 30.1439 46.4332 30.3295C46.2741 30.5114 46.1946 30.7538 46.1946 31.0568C46.1946 31.4773 46.3499 31.7955 46.6605 32.0114C46.9711 32.2235 47.367 32.3295 47.848 32.3295ZM55.7472 21.8636V33.5H54.0483V21.8636H55.7472ZM65.4986 24.7727L62.3338 33.5H60.5156L57.3452 24.7727H59.169L61.3793 31.4886H61.4702L63.6747 24.7727H65.4986ZM69.3849 33.6932C68.8319 33.6932 68.3319 33.5909 67.8849 33.3864C67.438 33.178 67.0838 32.8769 66.8224 32.483C66.5649 32.089 66.4361 31.6061 66.4361 31.0341C66.4361 30.5417 66.5308 30.1364 66.7202 29.8182C66.9096 29.5 67.1652 29.2481 67.4872 29.0625C67.8092 28.8769 68.169 28.7367 68.5668 28.642C68.9645 28.5473 69.3698 28.4754 69.7827 28.4261C70.3054 28.3655 70.7296 28.3163 71.0554 28.2784C71.3812 28.2367 71.6179 28.1705 71.7656 28.0795C71.9134 27.9886 71.9872 27.8409 71.9872 27.6364V27.5966C71.9872 27.1004 71.8471 26.7159 71.5668 26.4432C71.2902 26.1705 70.8774 26.0341 70.3281 26.0341C69.7562 26.0341 69.3054 26.161 68.9759 26.4148C68.6501 26.6648 68.4247 26.9432 68.2997 27.25L66.7031 26.8864C66.8925 26.3561 67.169 25.928 67.5327 25.6023C67.9001 25.2727 68.3224 25.0341 68.7997 24.8864C69.277 24.7348 69.7789 24.6591 70.3054 24.6591C70.6539 24.6591 71.0232 24.7008 71.4134 24.7841C71.8073 24.8636 72.1747 25.0114 72.5156 25.2273C72.8603 25.4432 73.1425 25.7519 73.3622 26.1534C73.5819 26.5511 73.6918 27.0682 73.6918 27.7045V33.5H72.0327V32.3068H71.9645C71.8546 32.5265 71.6899 32.7424 71.4702 32.9545C71.2505 33.1667 70.9683 33.3428 70.6236 33.483C70.2789 33.6231 69.866 33.6932 69.3849 33.6932ZM69.7543 32.3295C70.224 32.3295 70.6255 32.2367 70.9588 32.0511C71.2959 31.8655 71.5516 31.6231 71.7259 31.3239C71.9039 31.0208 71.9929 30.697 71.9929 30.3523V29.2273C71.9323 29.2879 71.8149 29.3447 71.6406 29.3977C71.4702 29.447 71.2751 29.4905 71.0554 29.5284C70.8357 29.5625 70.6217 29.5947 70.4134 29.625C70.205 29.6515 70.0308 29.6742 69.8906 29.6932C69.5611 29.7348 69.2599 29.8049 68.9872 29.9034C68.7183 30.0019 68.5024 30.1439 68.3395 30.3295C68.1804 30.5114 68.1009 30.7538 68.1009 31.0568C68.1009 31.4773 68.2562 31.7955 68.5668 32.0114C68.8774 32.2235 69.2732 32.3295 69.7543 32.3295ZM75.9545 33.5V24.7727H77.5966V26.1591H77.6875C77.8466 25.6894 78.1269 25.3201 78.5284 25.0511C78.9337 24.7784 79.392 24.642 79.9034 24.642C80.0095 24.642 80.1345 24.6458 80.2784 24.6534C80.4261 24.661 80.5417 24.6705 80.625 24.6818V26.3068C80.5568 26.2879 80.4356 26.267 80.2614 26.2443C80.0871 26.2178 79.9129 26.2045 79.7386 26.2045C79.3371 26.2045 78.9792 26.2898 78.6648 26.4602C78.3542 26.6269 78.108 26.8598 77.9261 27.1591C77.7443 27.4545 77.6534 27.7917 77.6534 28.1705V33.5H75.9545ZM90.4034 24.7727V26.1364H85.6364V24.7727H90.4034ZM86.9148 22.6818H88.6136V30.9375C88.6136 31.267 88.6629 31.5152 88.7614 31.6818C88.8598 31.8447 88.9867 31.9564 89.142 32.017C89.3011 32.0739 89.4735 32.1023 89.6591 32.1023C89.7955 32.1023 89.9148 32.0928 90.017 32.0739C90.1193 32.0549 90.1989 32.0398 90.2557 32.0284L90.5625 33.4318C90.464 33.4697 90.3239 33.5076 90.142 33.5455C89.9602 33.5871 89.733 33.6098 89.4602 33.6136C89.0133 33.6212 88.5966 33.5417 88.2102 33.375C87.8239 33.2083 87.5114 32.9508 87.2727 32.6023C87.0341 32.2538 86.9148 31.8163 86.9148 31.2898V22.6818ZM94.8224 33.6932C94.2694 33.6932 93.7694 33.5909 93.3224 33.3864C92.8755 33.178 92.5213 32.8769 92.2599 32.483C92.0024 32.089 91.8736 31.6061 91.8736 31.0341C91.8736 30.5417 91.9683 30.1364 92.1577 29.8182C92.3471 29.5 92.6027 29.2481 92.9247 29.0625C93.2467 28.8769 93.6065 28.7367 94.0043 28.642C94.402 28.5473 94.8073 28.4754 95.2202 28.4261C95.7429 28.3655 96.1671 28.3163 96.4929 28.2784C96.8187 28.2367 97.0554 28.1705 97.2031 28.0795C97.3509 27.9886 97.4247 27.8409 97.4247 27.6364V27.5966C97.4247 27.1004 97.2846 26.7159 97.0043 26.4432C96.7277 26.1705 96.3149 26.0341 95.7656 26.0341C95.1937 26.0341 94.7429 26.161 94.4134 26.4148C94.0876 26.6648 93.8622 26.9432 93.7372 27.25L92.1406 26.8864C92.33 26.3561 92.6065 25.928 92.9702 25.6023C93.3376 25.2727 93.7599 25.0341 94.2372 24.8864C94.7145 24.7348 95.2164 24.6591 95.7429 24.6591C96.0914 24.6591 96.4607 24.7008 96.8509 24.7841C97.2448 24.8636 97.6122 25.0114 97.9531 25.2273C98.2978 25.4432 98.58 25.7519 98.7997 26.1534C99.0194 26.5511 99.1293 27.0682 99.1293 27.7045V33.5H97.4702V32.3068H97.402C97.2921 32.5265 97.1274 32.7424 96.9077 32.9545C96.688 33.1667 96.4058 33.3428 96.0611 33.483C95.7164 33.6231 95.3035 33.6932 94.8224 33.6932ZM95.1918 32.3295C95.6615 32.3295 96.063 32.2367 96.3963 32.0511C96.7334 31.8655 96.9891 31.6231 97.1634 31.3239C97.3414 31.0208 97.4304 30.697 97.4304 30.3523V29.2273C97.3698 29.2879 97.2524 29.3447 97.0781 29.3977C96.9077 29.447 96.7126 29.4905 96.4929 29.5284C96.2732 29.5625 96.0592 29.5947 95.8509 29.625C95.6425 29.6515 95.4683 29.6742 95.3281 29.6932C94.9986 29.7348 94.6974 29.8049 94.4247 29.9034C94.1558 30.0019 93.9399 30.1439 93.777 30.3295C93.6179 30.5114 93.5384 30.7538 93.5384 31.0568C93.5384 31.4773 93.6937 31.7955 94.0043 32.0114C94.3149 32.2235 94.7107 32.3295 95.1918 32.3295ZM101.392 33.5V24.7727H103.034V26.1591H103.125C103.284 25.6894 103.564 25.3201 103.966 25.0511C104.371 24.7784 104.83 24.642 105.341 24.642C105.447 24.642 105.572 24.6458 105.716 24.6534C105.864 24.661 105.979 24.6705 106.062 24.6818V26.3068C105.994 26.2879 105.873 26.267 105.699 26.2443C105.525 26.2178 105.35 26.2045 105.176 26.2045C104.775 26.2045 104.417 26.2898 104.102 26.4602C103.792 26.6269 103.545 26.8598 103.364 27.1591C103.182 27.4545 103.091 27.7917 103.091 28.1705V33.5H101.392ZM110.982 33.6761C110.122 33.6761 109.381 33.4924 108.76 33.125C108.143 32.7538 107.665 32.233 107.328 31.5625C106.995 30.8883 106.828 30.0985 106.828 29.1932C106.828 28.2992 106.995 27.5114 107.328 26.8295C107.665 26.1477 108.135 25.6155 108.737 25.233C109.343 24.8504 110.052 24.6591 110.862 24.6591C111.355 24.6591 111.832 24.7405 112.294 24.9034C112.756 25.0663 113.171 25.322 113.538 25.6705C113.906 26.0189 114.196 26.4716 114.408 27.0284C114.62 27.5814 114.726 28.2538 114.726 29.0455V29.6477H107.788V28.375H113.061C113.061 27.928 112.97 27.5322 112.788 27.1875C112.607 26.839 112.351 26.5644 112.021 26.3636C111.696 26.1629 111.313 26.0625 110.874 26.0625C110.396 26.0625 109.98 26.1799 109.624 26.4148C109.271 26.6458 108.999 26.9489 108.805 27.3239C108.616 27.6951 108.521 28.0985 108.521 28.5341V29.5284C108.521 30.1117 108.624 30.608 108.828 31.017C109.036 31.4261 109.326 31.7386 109.697 31.9545C110.069 32.1667 110.502 32.2727 110.999 32.2727C111.321 32.2727 111.614 32.2273 111.879 32.1364C112.144 32.0417 112.374 31.9015 112.567 31.7159C112.76 31.5303 112.908 31.3011 113.01 31.0284L114.618 31.3182C114.489 31.7917 114.258 32.2064 113.925 32.5625C113.595 32.9148 113.18 33.1894 112.68 33.3864C112.184 33.5795 111.618 33.6761 110.982 33.6761ZM120.764 24.7727V26.1364H115.832V24.7727H120.764ZM117.185 33.5V23.7614C117.185 23.2159 117.304 22.7633 117.543 22.4034C117.781 22.0398 118.098 21.7689 118.491 21.5909C118.885 21.4091 119.313 21.3182 119.776 21.3182C120.116 21.3182 120.408 21.3466 120.651 21.4034C120.893 21.4564 121.073 21.5057 121.19 21.5511L120.793 22.9261C120.713 22.9034 120.611 22.8769 120.486 22.8466C120.361 22.8125 120.209 22.7955 120.031 22.7955C119.618 22.7955 119.323 22.8977 119.145 23.1023C118.971 23.3068 118.884 23.6023 118.884 23.9886V33.5H117.185ZM124.791 33.6932C124.238 33.6932 123.738 33.5909 123.291 33.3864C122.844 33.178 122.49 32.8769 122.229 32.483C121.971 32.089 121.842 31.6061 121.842 31.0341C121.842 30.5417 121.937 30.1364 122.126 29.8182C122.316 29.5 122.571 29.2481 122.893 29.0625C123.215 28.8769 123.575 28.7367 123.973 28.642C124.371 28.5473 124.776 28.4754 125.189 28.4261C125.712 28.3655 126.136 28.3163 126.462 28.2784C126.787 28.2367 127.024 28.1705 127.172 28.0795C127.32 27.9886 127.393 27.8409 127.393 27.6364V27.5966C127.393 27.1004 127.253 26.7159 126.973 26.4432C126.696 26.1705 126.284 26.0341 125.734 26.0341C125.162 26.0341 124.712 26.161 124.382 26.4148C124.056 26.6648 123.831 26.9432 123.706 27.25L122.109 26.8864C122.299 26.3561 122.575 25.928 122.939 25.6023C123.306 25.2727 123.729 25.0341 124.206 24.8864C124.683 24.7348 125.185 24.6591 125.712 24.6591C126.06 24.6591 126.429 24.7008 126.82 24.7841C127.214 24.8636 127.581 25.0114 127.922 25.2273C128.267 25.4432 128.549 25.7519 128.768 26.1534C128.988 26.5511 129.098 27.0682 129.098 27.7045V33.5H127.439V32.3068H127.371C127.261 32.5265 127.096 32.7424 126.876 32.9545C126.657 33.1667 126.375 33.3428 126.03 33.483C125.685 33.6231 125.272 33.6932 124.791 33.6932ZM125.161 32.3295C125.63 32.3295 126.032 32.2367 126.365 32.0511C126.702 31.8655 126.958 31.6231 127.132 31.3239C127.31 31.0208 127.399 30.697 127.399 30.3523V29.2273C127.339 29.2879 127.221 29.3447 127.047 29.3977C126.876 29.447 126.681 29.4905 126.462 29.5284C126.242 29.5625 126.028 29.5947 125.82 29.625C125.611 29.6515 125.437 29.6742 125.297 29.6932C124.967 29.7348 124.666 29.8049 124.393 29.9034C124.125 30.0019 123.909 30.1439 123.746 30.3295C123.587 30.5114 123.507 30.7538 123.507 31.0568C123.507 31.4773 123.662 31.7955 123.973 32.0114C124.284 32.2235 124.679 32.3295 125.161 32.3295Z" fill="white"/>
</svg>
